# ProBuilder 4.4.0
# https://unity3d.com/unity/features/worldbuilding/probuilder
# 5/1/2021 11:14:05 AM

mtllib ./Floor.mtl
o Floor

g Floor
v 25.01508 0 25.00258
v -24.99844 0 25.00258
v 25.01508 1 25.00258
v -24.99844 1 25.00258
v -24.99844 0 -24.99115
v -24.99844 1 -24.99115
v 25.01508 0 -24.99115
v 25.01508 1 -24.99115

vt 25.01508 0
vt -24.99844 0
vt 25.01508 1
vt -24.99844 1
vt 25.00258 0
vt -24.99115 0
vt 25.00258 1
vt -24.99115 1
vt 24.99844 0
vt -25.01508 0
vt 24.99844 1
vt -25.01508 1
vt 24.99115 0
vt -25.00258 0
vt 24.99115 1
vt -25.00258 1
vt -25.01508 25.00258
vt 24.99844 25.00258
vt -25.01508 -24.99115
vt 24.99844 -24.99115
vt 25.01508 -24.99115
vt -24.99844 -24.99115
vt 25.01508 25.00258
vt -24.99844 25.00258

vn 0 0 1
vn -1 0 0
vn 0 0 -1
vn 1 0 0
vn 0 1 0
vn 0 -1 0

usemtl Psx_Unlit_Ground
f 3/3/1 4/4/1 2/2/1 1/1/1
f 4/7/2 6/8/2 5/6/2 2/5/2
f 6/11/3 8/12/3 7/10/3 5/9/3
f 8/15/4 3/16/4 1/14/4 7/13/4
f 8/19/5 6/20/5 4/18/5 3/17/5
f 1/23/6 2/24/6 5/22/6 7/21/6

